<svg width="600" height="400" xmlns="http://www.w3.org/2000/svg">

 <g>
  <title>Layer 1</title>
  <g stroke="null">
   <title stroke="null">Klarna Payment Badge</title>
   <g stroke="null" fill-rule="evenodd" transform="matrix(7.25789 0 0 7.25789 -40.6499 -3.9423)">
    <rect stroke="null" y="15.5994" fill="#ffb3c7" rx="4.321" height="25" width="45" x="24.43513"></rect>
    <g stroke="null" fill="#0a0b09">
     <path stroke="null" d="m65.22213,30.2734c-0.58875,0 -1.066,0.48158 -1.066,1.0757c0,0.594 0.47725,1.0757 1.066,1.0757c0.58874,0 1.0661,-0.48167 1.0661,-1.0757c0,-0.59416 -0.47734,-1.0757 -1.0661,-1.0757zm-3.5073,-0.83166c0,-0.81338 -0.68897,-1.4726 -1.5389,-1.4726s-1.539,0.65925 -1.539,1.4726c0,0.81339 0.68898,1.4728 1.539,1.4728s1.5389,-0.65941 1.5389,-1.4728zm0.0057,-2.8622l1.6984,0l0,5.7242l-1.6984,0l0,-0.36584c-0.47982,0.3302 -1.059,0.52431 -1.6837,0.52431c-1.6531,0 -2.9933,-1.3523 -2.9933,-3.0205s1.3402,-3.0204 2.9933,-3.0204c0.6247,0 1.2039,0.1941 1.6837,0.5244l0,-0.36619l0,0.00002zm-13.592,0.74562l0,-0.74554l-1.7389,0l0,5.7241l1.7428,0l0,-2.6725c0,-0.90167 0.96849,-1.3863 1.6405,-1.3863c0.0069,0 0.01331,0.00067 0.02019,0.00075l0,-1.6656c-0.68973,0 -1.3241,0.298 -1.6646,0.7452l0.00001,-0.00011zm-4.3316,2.1166c0,-0.81338 -0.68905,-1.4726 -1.539,-1.4726c-0.84991,0 -1.539,0.65925 -1.539,1.4726c0,0.81339 0.68905,1.4728 1.539,1.4728c0.84998,0 1.539,-0.65941 1.539,-1.4728zm0.0056,-2.8622l1.6985,0l0,5.7242l-1.6985,0l0,-0.36584c-0.47982,0.3302 -1.059,0.52431 -1.6836,0.52431c-1.6532,0 -2.9934,-1.3523 -2.9934,-3.0205s1.3402,-3.0204 2.9934,-3.0204c0.62464,0 1.2038,0.1941 1.6836,0.5244l0,-0.36619l0,0.00002zm10.223,-0.15396c-0.67846,0 -1.3206,0.21255 -1.7499,0.79895l0,-0.64465l-1.6911,0l0,5.7239l1.7119,0l0,-3.0081c0,-0.87046 0.57847,-1.2967 1.275,-1.2967c0.74646,0 1.1756,0.44996 1.1756,1.2849l0,3.0199l1.6964,0l0,-3.6401c0,-1.3321 -1.0496,-2.238 -2.4179,-2.238l0,-0.0001zm-17.374,5.8782l1.7777,0l0,-8.2751l-1.7777,0l0,8.2751zm-7.8091,0.0023l1.8824,0l0,-8.2789l-1.8824,0l0,8.2789zm6.584,-8.2789c0,1.7923 -0.69219,3.4596 -1.9256,4.6989l2.602,3.5803l-2.325,0l-2.8278,-3.891l0.72981,-0.55152c1.2103,-0.91484 1.9045,-2.3132 1.9045,-3.8367l1.8421,0l-0.00001,0.00002z"></path>
    </g>
   </g>
  </g>
 </g>
</svg>