<svg viewBox="0 0 512 512" xml:space="preserve" xmlns="http://www.w3.org/2000/svg"><path d="M503.866 477.974 360.958 335.052c28.725-34.544 46.017-78.912 46.017-127.336 0-110.084-89.227-199.312-199.312-199.312C97.599 8.403 8.351 97.631 8.351 207.715c0 110.064 89.248 199.312 199.312 199.312 48.435 0 92.792-17.292 127.336-46.017l142.908 142.922 25.959-25.958zM29.331 207.715c0-98.334 79.987-178.332 178.332-178.332 98.325 0 178.332 79.998 178.332 178.332s-80.007 178.332-178.332 178.332c-98.345 0-178.332-79.997-178.332-178.332z" fill="#1e1e1e" class="fill-37404d"></path></svg>